HIERARCHY
ROOT pelvis
{
	OFFSET 0.003123 -0.351407 0.012037
	CHANNELS 6 Xposition Yposition Zposition Zrotation Yrotation Xrotation 
	JOINT left_hip
	{
		OFFSET 0.058189 -0.092763 -0.026001
		CHANNELS 3 Zrotation Yrotation Xrotation
		JOINT left_knee
		{
			OFFSET 0.054695 -0.378753 -0.009396
			CHANNELS 3 Zrotation Yrotation Xrotation
			JOINT left_ankle
			{
				OFFSET -0.043453 -0.403059 -0.031876
				CHANNELS 3 Zrotation Yrotation Xrotation
				JOINT left_foot
				{
					OFFSET 0.047257 -0.057997 0.118216
					CHANNELS 3 Zrotation Yrotation Xrotation
					End Site
					{
						OFFSET 0.000000 0.000000 0.000000
					}
				}
			}
		}
	}
	JOINT right_hip
	{
		OFFSET -0.063267 -0.103908 -0.021250
		CHANNELS 3 Zrotation Yrotation Xrotation
		JOINT right_knee
		{
			OFFSET -0.044210 -0.362380 -0.016824
			CHANNELS 3 Zrotation Yrotation Xrotation
			JOINT right_ankle
			{
				OFFSET 0.015417 -0.410728 -0.020192
				CHANNELS 3 Zrotation Yrotation Xrotation
				JOINT right_foot
				{
					OFFSET -0.038812 -0.058328 0.119049
					CHANNELS 3 Zrotation Yrotation Xrotation
					End Site
					{
						OFFSET 0.000000 0.000000 0.000000
					}
				}
			}
		}
	}
	JOINT spine_1
	{
		OFFSET -0.002763 0.109891 -0.027618
		CHANNELS 3 Zrotation Yrotation Xrotation
		JOINT spine_2
		{
			OFFSET 0.009448 0.131853 -0.005940
			CHANNELS 3 Zrotation Yrotation Xrotation
			JOINT spine_3
			{
				OFFSET -0.011330 0.052235 0.028447
				CHANNELS 3 Zrotation Yrotation Xrotation
				JOINT neck
				{
					OFFSET -0.012164 0.165167 -0.031615
					CHANNELS 3 Zrotation Yrotation Xrotation
					JOINT head
					{
						OFFSET 0.024783 0.160452 0.020737
						CHANNELS 3 Zrotation Yrotation Xrotation
						End Site
						{
							OFFSET 0.000000 0.000000 0.000000
						}
					}
				}
				JOINT left_collar
				{
					OFFSET 0.046364 0.084944 -0.007220
					CHANNELS 3 Zrotation Yrotation Xrotation
					JOINT left_shoulder
					{
						OFFSET 0.119239 0.057728 -0.015461
						CHANNELS 3 Zrotation Yrotation Xrotation
						JOINT left_elbow
						{
							OFFSET 0.254123 -0.072151 -0.042459
							CHANNELS 3 Zrotation Yrotation Xrotation
							JOINT left_wrist
							{
								OFFSET 0.251987 0.023221 -0.002472
								CHANNELS 3 Zrotation Yrotation Xrotation
								JOINT left_index_1
								{
									OFFSET 0.101902 -0.008688 0.019351
									CHANNELS 3 Zrotation Yrotation Xrotation
									JOINT left_index_2
									{
										OFFSET 0.030149 -0.011154 0.001151
										CHANNELS 3 Zrotation Yrotation Xrotation
										JOINT left_index_3
										{
											OFFSET 0.006504 -0.021577 -0.002433
											CHANNELS 3 Zrotation Yrotation Xrotation
											End Site
											{
												OFFSET 0.000000 0.000000 0.000000
											}
										}
									}
								}
								JOINT left_middle_1
								{
									OFFSET 0.109398 -0.006328 -0.003981
									CHANNELS 3 Zrotation Yrotation Xrotation
									JOINT left_middle_2
									{
										OFFSET 0.026472 -0.015218 -0.004641
										CHANNELS 3 Zrotation Yrotation Xrotation
										JOINT left_middle_3
										{
											OFFSET 0.005022 -0.023347 -0.001911
											CHANNELS 3 Zrotation Yrotation Xrotation
											End Site
											{
												OFFSET 0.000000 0.000000 0.000000
											}
										}
									}
								}
								JOINT left_pinky_1
								{
									OFFSET 0.084047 -0.014539 -0.043750
									CHANNELS 3 Zrotation Yrotation Xrotation
									JOINT left_pinky_2
									{
										OFFSET 0.012124 -0.014448 -0.005375
										CHANNELS 3 Zrotation Yrotation Xrotation
										JOINT left_pinky_3
										{
											OFFSET 0.003798 -0.018853 0.000167
											CHANNELS 3 Zrotation Yrotation Xrotation
											End Site
											{
												OFFSET 0.000000 0.000000 0.000000
											}
										}
									}
								}
								JOINT left_ring_1
								{
									OFFSET 0.097444 -0.009268 -0.027345
									CHANNELS 3 Zrotation Yrotation Xrotation
									JOINT left_ring_2
									{
										OFFSET 0.023561 -0.016057 -0.001895
										CHANNELS 3 Zrotation Yrotation Xrotation
										JOINT left_ring_3
										{
											OFFSET 0.004257 -0.023548 0.000814
											CHANNELS 3 Zrotation Yrotation Xrotation
											End Site
											{
												OFFSET 0.000000 0.000000 0.000000
											}
										}
									}
								}
								JOINT left_thumb_1
								{
									OFFSET 0.040636 -0.017977 0.025611
									CHANNELS 3 Zrotation Yrotation Xrotation
									JOINT left_thumb_2
									{
										OFFSET 0.021637 -0.017639 0.011623
										CHANNELS 3 Zrotation Yrotation Xrotation
										JOINT left_thumb_3
										{
											OFFSET 0.024002 -0.008356 0.006548
											CHANNELS 3 Zrotation Yrotation Xrotation
											End Site
											{
												OFFSET 0.000000 0.000000 0.000000
											}
										}
									}
								}
							}
						}
					}
				}
				JOINT right_collar
				{
					OFFSET -0.047695 0.084339 -0.013400
					CHANNELS 3 Zrotation Yrotation Xrotation
					JOINT right_shoulder
					{
						OFFSET -0.102578 0.053524 -0.012669
						CHANNELS 3 Zrotation Yrotation Xrotation
						JOINT right_elbow
						{
							OFFSET -0.271150 -0.036492 -0.026467
							CHANNELS 3 Zrotation Yrotation Xrotation
							JOINT right_wrist
							{
								OFFSET -0.249267 -0.004533 -0.015325
								CHANNELS 3 Zrotation Yrotation Xrotation
								JOINT right_index_1
								{
									OFFSET -0.099881 -0.011783 0.019600
									CHANNELS 3 Zrotation Yrotation Xrotation
									JOINT right_index_2
									{
										OFFSET -0.030148 -0.011154 0.001151
										CHANNELS 3 Zrotation Yrotation Xrotation
										JOINT right_index_3
										{
											OFFSET -0.006505 -0.021577 -0.002432
											CHANNELS 3 Zrotation Yrotation Xrotation
											End Site
											{
												OFFSET 0.000000 0.000000 0.000000
											}
										}
									}
								}
								JOINT right_middle_1
								{
									OFFSET -0.107376 -0.009422 -0.003734
									CHANNELS 3 Zrotation Yrotation Xrotation
									JOINT right_middle_2
									{
										OFFSET -0.026472 -0.015218 -0.004641
										CHANNELS 3 Zrotation Yrotation Xrotation
										JOINT right_middle_3
										{
											OFFSET -0.005022 -0.023347 -0.001911
											CHANNELS 3 Zrotation Yrotation Xrotation
											End Site
											{
												OFFSET 0.000000 0.000000 0.000000
											}
										}
									}
								}
								JOINT right_pinky_1
								{
									OFFSET -0.082027 -0.017634 -0.043503
									CHANNELS 3 Zrotation Yrotation Xrotation
									JOINT right_pinky_2
									{
										OFFSET -0.012123 -0.014448 -0.005374
										CHANNELS 3 Zrotation Yrotation Xrotation
										JOINT right_pinky_3
										{
											OFFSET -0.003798 -0.018852 0.000167
											CHANNELS 3 Zrotation Yrotation Xrotation
											End Site
											{
												OFFSET 0.000000 0.000000 0.000000
											}
										}
									}
								}
								JOINT right_ring_1
								{
									OFFSET -0.095423 -0.012362 -0.027099
									CHANNELS 3 Zrotation Yrotation Xrotation
									JOINT right_ring_2
									{
										OFFSET -0.023561 -0.016057 -0.001895
										CHANNELS 3 Zrotation Yrotation Xrotation
										JOINT right_ring_3
										{
											OFFSET -0.004257 -0.023548 0.000816
											CHANNELS 3 Zrotation Yrotation Xrotation
											End Site
											{
												OFFSET 0.000000 0.000000 0.000000
											}
										}
									}
								}
								JOINT right_thumb_1
								{
									OFFSET -0.038613 -0.021074 0.025861
									CHANNELS 3 Zrotation Yrotation Xrotation
									JOINT right_thumb_2
									{
										OFFSET -0.021636 -0.017639 0.011623
										CHANNELS 3 Zrotation Yrotation Xrotation
										JOINT right_thumb_3
										{
											OFFSET -0.024004 -0.008353 0.006547
											CHANNELS 3 Zrotation Yrotation Xrotation
											End Site
											{
												OFFSET 0.000000 0.000000 0.000000
											}
										}
									}
								}
							}
						}
					}
				}
			}
		}
	}
}
MOTION
Frames: 7
Frame Time: 0.050000
-0.179939 0.986874 -0.449493 2.997187 -11.624145 -34.112321 4.465121 1.646086 12.593399 13.662229 -7.124240 29.068732 -14.086600 -12.507731 16.790877 0.000000 0.000000 0.000000 -13.443761 2.070455 31.894465 1.690849 1.150185 24.307162 7.433212 -0.265232 17.899357 0.000000 0.000000 0.000000 0.232363 -2.303782 63.186367 3.440295 -7.351376 -19.998400 -6.111254 6.979510 12.305937 1.474719 -4.662911 24.482243 0.000000 0.000000 0.000000 -9.163594 -3.117068 0.239423 -33.298593 -13.171110 -6.471023 -127.330385 -67.895204 118.362872 -3.936517 -7.926049 -1.086084 -57.740162 1.469274 2.009386 -43.586990 31.231619 30.328497 0.000000 0.000000 0.000000 -66.738257 -8.768859 -8.969906 -43.355415 18.909279 20.996416 0.000000 0.000000 0.000000 -38.506368 -32.163130 -34.800723 -76.010893 10.778380 9.136926 0.000000 0.000000 0.000000 -66.225448 -22.850837 -4.669747 -51.277538 9.761848 15.794855 0.000000 0.000000 0.000000 14.748965 27.055675 23.405888 -1.989510 -15.358972 -4.369779 0.000000 0.000000 0.000000 18.278562 10.706866 6.354402 36.789556 22.247623 -0.060567 46.271471 74.038993 33.985013 4.612557 4.171074 -5.836666 60.138084 -5.543531 2.432649 39.503044 3.984418 -11.996177 0.000000 0.000000 0.000000 65.652525 8.004334 -7.801032 33.596760 8.844849 -20.519091 0.000000 0.000000 0.000000 13.726376 18.419640 -25.481414 61.969295 27.784672 -28.944857 0.000000 0.000000 0.000000 52.318871 18.044765 -5.283010 42.549190 19.349575 -25.785699 0.000000 0.000000 0.000000 3.194373 -23.647897 21.501797 -24.714122 0.350258 -6.446318 0.000000 0.000000 0.000000 
-0.185593 0.994610 -0.470612 3.013311 -15.031518 -34.323181 5.315767 1.861056 13.983303 12.017567 -6.406066 30.442318 -14.253518 -11.207031 19.204310 0.000000 0.000000 0.000000 -12.513687 2.145162 30.148795 1.197178 1.401143 23.956524 7.355810 0.505191 15.839592 0.000000 0.000000 0.000000 0.479464 -1.213876 69.559692 4.976756 -9.774159 -32.473929 -4.609299 11.026014 23.994512 3.842426 -4.087054 16.224194 0.000000 0.000000 0.000000 -7.107721 -1.097109 -0.579505 -33.945402 -16.435872 -7.069824 -123.697424 -68.529517 115.155685 -4.033340 -7.464690 -2.042926 -80.984860 8.139338 0.455464 -32.548786 28.264119 34.670439 0.000000 0.000000 0.000000 -88.389075 -3.750570 -11.102095 -20.006187 13.892882 27.796974 0.000000 0.000000 0.000000 -66.468889 -35.586021 -31.547557 -35.425132 16.892978 29.301836 0.000000 0.000000 0.000000 -88.262996 -22.267724 -1.221650 -18.993689 6.488005 19.009875 0.000000 0.000000 0.000000 9.937328 29.770049 27.599593 20.010791 -19.813583 -15.950849 0.000000 0.000000 0.000000 16.836254 7.886043 4.850734 36.345814 28.017329 0.790489 44.006914 75.221885 33.972296 4.431925 2.770815 -9.694203 47.348353 -4.792669 2.839794 50.540921 0.689463 -6.652128 0.000000 0.000000 0.000000 57.237336 11.675524 -6.619504 41.255632 8.365047 -17.145392 0.000000 0.000000 0.000000 6.851262 19.024872 -26.967334 57.669562 22.023462 -23.946427 0.000000 0.000000 0.000000 41.341546 21.298399 -7.100187 45.246992 20.375250 -23.954034 0.000000 0.000000 0.000000 -4.579697 -25.936139 20.135988 -15.300750 7.204777 -7.618921 0.000000 0.000000 0.000000 
-0.189362 1.004280 -0.475891 1.715505 -17.380022 -31.181790 5.879738 1.861363 14.185829 10.876561 -5.675145 29.829861 -13.434452 -9.755087 19.855650 0.000000 0.000000 0.000000 -10.675437 1.449675 26.779706 1.105823 1.282391 21.397425 7.128333 0.012659 15.539588 0.000000 0.000000 0.000000 2.927375 -2.474046 65.432878 0.468154 -7.423108 -24.275583 -4.531517 6.000398 15.746512 4.298266 -5.070964 21.566132 0.000000 0.000000 0.000000 -9.187213 0.006150 -1.184172 -30.863849 -14.190442 -6.284864 -118.868536 -63.095342 104.071864 -3.663241 -7.715197 3.450281 -100.064566 18.255043 -7.789174 -16.612321 33.128890 51.213090 0.000000 0.000000 0.000000 -99.814800 0.401979 -15.461195 3.283686 4.847535 27.285653 0.000000 0.000000 0.000000 -80.809081 -28.945779 -29.124245 -15.672071 11.670071 34.251080 0.000000 0.000000 0.000000 -97.616618 -17.808319 -2.700797 -2.673186 3.583980 19.344971 0.000000 0.000000 0.000000 14.343135 32.704080 35.199827 55.142255 -22.205365 -37.878206 0.000000 0.000000 0.000000 16.661179 9.532175 4.972571 37.396364 23.749519 -0.019546 48.772288 74.892030 35.883389 4.654681 0.077344 -8.081250 45.423812 -8.724471 1.989303 58.732950 2.398353 -8.965064 0.000000 0.000000 0.000000 54.578686 12.385060 -7.316118 44.888593 9.065033 -17.481002 0.000000 0.000000 0.000000 17.611244 18.851567 -25.764563 54.722323 22.825887 -26.386827 0.000000 0.000000 0.000000 47.688919 19.727244 -6.003507 42.111785 21.267667 -27.635444 0.000000 0.000000 0.000000 -5.301151 -25.292376 19.831986 -22.558619 3.097946 -7.064584 0.000000 0.000000 0.000000 
-0.194073 1.015240 -0.481171 -0.030892 -19.850770 -29.898923 7.960001 2.024975 15.813820 8.825546 -4.615853 28.486665 -13.131602 -8.055295 21.976145 0.000000 0.000000 0.000000 -8.372093 0.841193 24.459963 -0.611839 1.749646 21.390585 9.584060 2.409026 16.729778 0.000000 0.000000 0.000000 3.256260 -1.798068 68.491956 1.721673 -8.506473 -27.635615 -1.932412 8.692792 16.270317 2.369388 -4.537355 21.748260 0.000000 0.000000 0.000000 -10.223906 -1.569906 -0.592651 -32.147535 -11.769398 -6.420139 -119.819516 -59.799197 101.000099 -4.674964 -9.165137 5.618990 -121.526563 21.629202 -14.700122 51.006523 -7.100439 -12.987711 0.000000 0.000000 0.000000 -114.787372 4.205970 -20.054810 21.054996 -1.278465 22.192352 0.000000 0.000000 0.000000 -102.566714 -15.699632 -28.182786 13.888333 3.219622 30.040876 0.000000 0.000000 0.000000 -110.268142 -19.766822 -0.922109 7.979498 2.229739 18.961876 0.000000 0.000000 0.000000 6.366903 38.362916 44.419401 86.303695 4.367477 -34.919574 0.000000 0.000000 0.000000 13.539157 7.373742 3.840245 38.134603 22.608080 -0.030510 56.523047 74.497967 42.576675 4.428419 0.222655 -7.888669 53.476157 -17.150916 0.389195 64.787469 -4.067515 -3.148895 0.000000 0.000000 0.000000 72.587825 3.873447 -8.319489 44.720204 7.441872 -15.729812 0.000000 0.000000 0.000000 32.478402 17.478009 -23.316091 59.047428 14.342901 -16.310493 0.000000 0.000000 0.000000 62.169045 17.095003 -3.493496 43.947681 19.780294 -25.262064 0.000000 0.000000 0.000000 -10.073152 -21.494384 14.146917 3.566002 -12.550083 6.318958 0.000000 0.000000 0.000000 
-0.195015 1.024910 -0.486450 -0.436645 -18.896430 -28.067229 7.453968 2.006303 15.905228 9.102288 -4.566916 26.173020 -13.851133 -9.568793 21.248250 0.000000 0.000000 0.000000 -8.967660 0.819223 23.065746 -0.507291 1.565231 20.226071 11.284528 1.606562 21.361926 0.000000 0.000000 0.000000 1.527336 -1.232080 68.247034 8.061188 -10.980497 -33.922952 -3.671459 10.154641 22.119020 2.986857 -4.702133 21.002504 0.000000 0.000000 0.000000 -11.796835 0.944417 -2.434086 -33.112302 -9.242949 -6.818391 -120.432995 -58.175772 100.593018 -9.767569 -6.673129 11.690066 -108.182726 19.243924 -12.479582 -3.076901 8.122113 14.797526 0.000000 0.000000 0.000000 -105.321192 6.731490 -21.379289 21.145260 -1.749234 9.234554 0.000000 0.000000 0.000000 -79.692641 -18.500006 -31.776325 -4.264714 7.239112 29.237747 0.000000 0.000000 0.000000 -97.387533 -16.824784 -6.427702 -2.972590 2.650707 15.770369 0.000000 0.000000 0.000000 8.389261 36.459139 45.633337 78.716300 -10.238270 -46.190297 0.000000 0.000000 0.000000 15.564072 9.270147 5.457844 35.298947 23.699360 -0.333412 51.507532 75.328509 39.697567 2.260955 0.093184 -12.013325 67.086709 -31.802520 -6.143509 57.774129 -5.654011 1.688645 0.000000 0.000000 0.000000 86.232963 -10.417165 -10.822592 38.249801 6.034612 -16.014178 0.000000 0.000000 0.000000 57.900867 6.444657 -13.994313 50.436351 10.572262 -16.072485 0.000000 0.000000 0.000000 70.774864 9.428539 -0.497359 42.143495 9.090545 -11.037860 0.000000 0.000000 0.000000 0.963843 -33.887420 26.934180 -58.415395 -0.838067 -8.505824 0.000000 0.000000 0.000000 
-0.199726 1.028133 -0.491730 -0.607534 -20.511984 -28.505204 8.087462 2.398174 18.855810 7.485517 -3.795809 24.259000 -13.221575 -9.205929 20.855517 0.000000 0.000000 0.000000 -9.391272 0.886717 20.600416 -0.651134 1.939769 22.395515 11.737366 1.149085 22.548143 0.000000 0.000000 0.000000 0.751729 -0.538161 68.396229 8.761872 -11.114044 -32.489864 -5.006714 12.443152 24.941961 3.951766 -4.374117 17.320829 0.000000 0.000000 0.000000 -9.476362 -0.075564 -1.508750 -32.663777 -11.944674 -7.015883 -121.282299 -59.087608 102.405144 -6.222341 -5.187429 8.827179 -122.637289 31.782105 -24.611205 44.895483 -6.657246 -31.384645 0.000000 0.000000 0.000000 -107.751016 9.915258 -22.520338 25.785835 -2.331191 11.077780 0.000000 0.000000 0.000000 -80.809835 -13.638053 -29.398536 -2.858260 5.869441 25.400433 0.000000 0.000000 0.000000 -100.650684 -8.550610 -7.607862 5.927947 1.718732 11.947950 0.000000 0.000000 0.000000 -20.196792 44.929562 43.501006 91.439591 12.745720 -26.575162 0.000000 0.000000 0.000000 17.879604 6.634092 4.067353 33.448682 22.947967 -0.859516 63.737262 78.611246 53.242196 -1.111411 -2.068895 -11.117756 39.527810 -18.905316 1.425857 68.052873 -4.709674 -1.851391 0.000000 0.000000 0.000000 49.554554 5.607354 -5.902126 59.618741 2.961340 -7.540552 0.000000 0.000000 0.000000 29.216190 12.686046 -17.995191 52.777383 18.140340 -22.062761 0.000000 0.000000 0.000000 47.176485 13.544097 -3.577429 57.824058 21.535564 -19.235927 0.000000 0.000000 0.000000 -12.646572 -30.893921 22.862265 -2.334343 14.034457 -7.382059 0.000000 0.000000 0.000000 
-0.206322 1.025555 -0.502289 -2.155883 -22.322935 -27.712134 9.849487 2.393047 19.559792 6.196733 -3.248592 23.581863 -12.474164 -8.830593 20.146222 0.000000 0.000000 0.000000 -7.473066 0.359478 18.337434 -2.465852 2.394725 22.109589 12.985342 3.056055 21.800914 0.000000 0.000000 0.000000 1.535767 -0.790305 67.398671 4.260231 -9.123276 -24.940323 -2.113413 10.452965 16.110737 2.275592 -5.143535 24.411840 0.000000 0.000000 0.000000 -10.904595 -3.853149 0.562164 -29.037565 -9.010703 -6.113704 -121.869091 -58.475842 101.493678 -1.974291 -3.603914 7.784821 -116.021338 33.894151 -23.707957 28.411461 -5.986866 -16.325762 0.000000 0.000000 0.000000 -106.150371 11.679910 -22.379070 12.556239 0.865677 17.916554 0.000000 0.000000 0.000000 -77.548551 -12.214572 -27.887983 -10.636573 6.754619 23.692876 0.000000 0.000000 0.000000 -98.669463 -6.480399 -7.445297 0.688087 1.925995 11.780255 0.000000 0.000000 0.000000 -17.312224 43.275227 42.256057 93.747992 13.478956 -26.455648 0.000000 0.000000 0.000000 14.768935 8.721911 4.969099 37.019575 15.710940 -1.583047 68.359697 80.294323 58.604230 -1.024176 -3.738170 -8.591414 30.776426 -17.321036 2.357554 71.564392 -2.906112 -4.681352 0.000000 0.000000 0.000000 40.308008 9.658889 -6.674307 63.315194 14.362152 -19.747963 0.000000 0.000000 0.000000 5.634951 20.480679 -28.236467 56.570521 20.781259 -23.551757 0.000000 0.000000 0.000000 37.491619 17.929561 -6.650175 56.234099 26.182560 -25.814928 0.000000 0.000000 0.000000 -14.535463 -28.507665 20.762043 -0.358178 9.530066 -4.236226 0.000000 0.000000 0.000000 
